<svg width="1173" height="340" viewBox="0 0 1173 340" fill="none" xmlns="http://www.w3.org/2000/svg">
<path d="M714.929 21.4V61.66H748.749V96.68H714.929V170.76C714.929 176.85 716.319 181.09 719.109 183.48C721.899 185.87 727.399 187.07 735.639 187.07C741.969 187.07 747.289 186.77 751.599 186.17V222.24C740.069 225.13 728.039 226.58 715.499 226.58C693.459 226.58 677.179 222.49 666.669 214.31C656.149 206.13 650.899 193.71 650.899 177.05V96.69H624.679V61.67H650.899V21.4H714.929Z" fill="white"/>
<path d="M873.379 226.57C841.839 226.57 816.319 219.16 796.809 204.35C777.299 189.53 767.549 170.25 767.549 146.51V142.32C767.549 125.76 771.439 111.14 779.239 98.47C787.029 85.8 798.399 76 813.339 69.06C828.279 62.13 846.019 58.66 866.539 58.66C895.419 58.66 918.219 65.72 934.939 79.83C951.659 93.95 960.019 113.63 960.019 138.87V158.48H832.719C834.999 167.56 839.999 174.69 847.729 179.88C855.459 185.07 865.459 187.66 877.749 187.66C898.009 187.66 913.849 182.07 925.249 170.9L954.509 198.14C946.529 206.82 935.229 213.73 920.599 218.87C905.969 224 890.229 226.57 873.379 226.57ZM866.159 97.57C847.409 97.57 836.269 107.35 832.719 126.9H897.319V123.01C897.569 114.93 894.979 108.67 889.529 104.23C884.089 99.79 876.299 97.57 866.159 97.57Z" fill="white"/>
<path d="M1044.57 61.66L1046.66 80.67C1060.85 66 1080.41 58.67 1105.37 58.67C1126.78 58.67 1142.77 63.71 1153.34 73.78C1163.91 83.86 1169.4 99.02 1169.77 119.28V223.59H1105.55V121.37C1105.55 113.19 1103.46 107.18 1099.28 103.34C1095.1 99.5 1087.5 97.58 1076.48 97.58C1063.94 97.58 1054.63 101.47 1048.55 109.25V223.58H984.519V61.66H1044.57Z" fill="white"/>
<path d="M658.639 251.44V264.42H672.459V269.01H658.639V302.83C658.639 305.64 659.309 307.74 660.649 309.12C661.989 310.5 664.219 311.18 667.339 311.18C668.569 311.18 670.569 311.02 673.319 310.71L673.629 315.26C671.689 315.79 669.059 316.05 665.729 316.05C660.669 316.05 656.989 314.93 654.689 312.7C652.389 310.47 651.239 307.18 651.239 302.84V269.01H638.959V264.42H651.239V251.44H658.639Z" fill="#9B6610"/>
<path d="M768.609 308.7C764.169 313.61 757.069 316.06 747.319 316.06C740.199 316.06 734.789 314.49 731.089 311.35C727.389 308.21 725.499 303.57 725.409 297.41V264.42H732.749V296.7C732.749 306.35 737.889 311.18 748.179 311.18C758.869 311.18 765.639 307.82 768.479 301.11V264.42H775.879V315.12H768.719L768.609 308.7Z" fill="#9B6610"/>
<path d="M863.839 269.2C862.279 268.98 860.609 268.87 858.839 268.87C854.229 268.87 850.329 269.85 847.149 271.8C843.959 273.75 841.689 276.59 840.329 280.31V315.12H832.989V264.42H840.209L840.329 272.48C844.239 266.48 850.509 263.48 859.149 263.48C861.209 263.48 862.829 263.68 864.029 264.09L863.839 269.2Z" fill="#9B6610"/>
<path d="M912.969 249.78C912.969 248.73 913.419 247.83 914.329 247.1C915.229 246.37 916.469 246.01 918.029 246.01C919.589 246.01 920.839 246.37 921.759 247.1C922.679 247.83 923.149 248.72 923.149 249.78C923.149 250.84 922.689 251.72 921.759 252.43C920.829 253.14 919.589 253.5 918.029 253.5C916.469 253.5 915.229 253.14 914.329 252.43C913.429 251.71 912.969 250.83 912.969 249.78ZM921.669 315.12H914.269V264.42H921.669V315.12Z" fill="#9B6610"/>
<path d="M984.509 310.38H1027.89V315.11H975.379V310.99L1015.85 269.29H976.609V264.42H1025.17V268.63L984.509 310.38Z" fill="#9B6610"/>
<path d="M1085.72 264.42L1085.97 272.67C1088.44 269.61 1091.52 267.31 1095.22 265.78C1098.92 264.25 1103.04 263.49 1107.56 263.49C1118.09 263.49 1124.77 266.77 1127.61 273.33C1130 270.17 1133.18 267.75 1137.18 266.04C1141.17 264.34 1145.57 263.49 1150.38 263.49C1164.69 263.49 1171.99 269.42 1172.28 281.3V315.13H1164.88V281.72C1164.84 277.19 1163.55 273.83 1161.02 271.65C1158.49 269.46 1154.37 268.37 1148.65 268.37C1143.35 268.43 1138.86 269.74 1135.2 272.28C1131.54 274.83 1129.5 277.93 1129.09 281.58V315.13H1121.69V281.3C1121.65 276.96 1120.3 273.72 1117.65 271.58C1115 269.44 1110.91 268.37 1105.4 268.37C1100.75 268.37 1096.76 269.38 1093.43 271.39C1090.1 273.4 1087.63 276.4 1086.03 280.36V315.13H1078.63V264.43H1085.72V264.42Z" fill="#9B6610"/>
<path d="M82.1787 315.87V128.62C71.6787 129.5 39.3087 130.37 30.5587 130.37H12.1787V71.75C63.7987 69.13 88.2987 48.13 99.6787 4.38H162.679V315.87H82.1787Z" fill="white"/>
<path d="M191.099 160.12C191.099 60.81 234.849 0 326.719 0C418.589 0 462.339 60.81 462.339 160.12C462.339 259.43 418.589 320.24 326.719 320.24C234.849 320.24 191.099 259.43 191.099 160.12ZM381.849 160.12C381.849 94.06 363.909 64.75 326.729 64.75C289.539 64.75 271.609 94.06 271.609 160.12C271.609 226.18 289.549 255.49 326.729 255.49C363.909 255.5 381.849 226.18 381.849 160.12Z" fill="white"/>
<path d="M589.069 33.36C588.949 33.91 588.779 34.47 588.599 35.04C588.399 35.81 588.129 36.61 587.809 37.41C586.809 40.05 585.609 42.19 584.539 43.84C577.199 49.76 569.849 55.66 562.509 61.55C563.179 65.4 564.129 71 565.129 77.79C566.479 86.87 567.159 91.49 567.399 96.36C567.629 101.18 567.579 108.19 566.249 116.75C564.849 110 562.439 101.45 558.079 92.11C554.069 83.49 549.529 76.6 545.559 71.41C535.659 77.66 525.749 83.92 515.829 90.18C516.469 92.52 517.109 95.82 517.049 99.79C516.979 104.01 516.159 107.47 515.399 109.84C514.749 106.91 513.559 102.98 511.209 98.8C510.619 97.75 510.019 96.79 509.409 95.9C510.479 94.91 511.559 93.93 512.629 92.94C510.969 90.75 509.299 88.54 507.629 86.34C507.629 86.53 506.409 87.43 504.239 88.86C503.739 88.25 503.219 87.62 502.639 87C499.379 83.48 496.029 81.11 493.449 79.58C495.939 79.6 499.479 79.89 503.499 81.12C507.309 82.31 510.239 83.95 512.259 85.28C521.279 77.81 530.329 70.33 539.349 62.86C535.629 57.47 530.519 51.01 523.579 44.52C516.049 37.48 508.669 32.52 502.679 29.1C511.259 30.48 517.909 32.63 522.419 34.35C526.979 36.09 531.179 38.16 539.379 42.27C545.519 45.33 550.549 47.98 553.999 49.81C561.879 44.67 569.779 39.52 577.669 34.37C579.579 33.88 581.989 33.42 584.799 33.26C585.669 33.23 586.509 33.22 587.329 33.25C587.939 33.26 588.499 33.28 589.069 33.36ZM184.499 113.51C180.609 114.15 176.709 114.85 172.829 115.59V147.63C175.629 146.96 178.439 146.32 181.249 145.71C181.749 134.41 182.829 123.67 184.499 113.51ZM367.989 116.76C341.529 111.64 314.719 108.45 287.829 107.33C285.439 115.14 283.659 124.81 282.659 136.71C314.919 137.75 344.719 142.32 371.489 148.68C371.029 136.03 369.809 125.5 367.989 116.76ZM537.979 193.68C520.169 174.03 496.779 158.9 472.289 147.87C472.429 151.88 472.509 155.96 472.509 160.12C472.509 168.6 472.209 176.79 471.589 184.69C480.269 188.94 487.749 192.92 493.929 196.36C498.889 199.25 528.029 216.82 534.909 251.74C538.269 268.83 535.399 286.64 527.879 302.26C524.239 309.82 519.299 316.59 513.599 322.71C509.769 326.81 497.059 334.95 496.289 339.8C504.949 336.75 513.869 328.78 520.999 322.98C528.859 316.58 536.159 309.47 542.399 301.46C555.149 285.09 563.309 264.43 561.619 243.76C560.069 225.03 550.599 207.6 537.979 193.68ZM507.019 92.73C506.839 92.45 506.649 92.15 506.449 91.86C505.819 90.9 505.079 89.89 504.239 88.85C492.699 96.47 454.359 119.33 431.359 132.82C422.559 137.98 416.019 141.76 414.069 142.79C406.809 146.64 399.509 150.4 392.149 154.07C366.579 166.82 340.429 178.42 313.769 188.75C273.639 204.3 232.299 216.5 190.499 226.74C162.059 233.7 132.929 239.66 103.709 237.76C94.1488 237.14 84.3588 235.58 76.1388 230.65C68.0988 225.82 61.8288 217.17 61.9788 207.83C61.9788 207.63 61.9888 207.44 61.9988 207.24C62.0788 205.46 62.3888 203.72 62.8888 202.02C63.9288 198.43 65.7888 195.05 68.0688 192.06C69.2988 190.45 70.6188 188.96 72.0188 187.58V145.31C60.3688 150.64 49.2188 156.86 38.9088 164.27C27.2188 172.67 16.7488 183.13 9.4688 195.5C7.9588 198.05 6.5988 200.68 5.3788 203.39C4.7288 204.84 4.1288 206.32 3.5788 207.82H3.5688C-0.441199 218.8 -1.5912 231.04 2.8388 241.76C8.1888 254.71 20.6488 263.29 33.3188 269.24C80.1388 291.23 130.179 280.9 178.409 269.9C245.979 254.5 311.269 229.24 371.769 195.45C389.249 185.68 406.329 175.21 422.949 164.04C433.969 156.64 444.789 148.94 455.389 140.94C474.119 126.82 492.149 111.79 509.409 95.9C508.859 95.09 508.299 94.34 507.749 93.65C507.509 93.33 507.259 93.02 507.019 92.73ZM507.629 86.34C507.629 86.53 506.409 87.43 504.239 88.86C505.079 89.89 505.819 90.91 506.449 91.87C506.659 92.16 506.849 92.45 507.019 92.74C507.259 93.03 507.509 93.34 507.739 93.66C508.289 94.35 508.849 95.1 509.399 95.91C510.469 94.92 511.549 93.94 512.619 92.95C510.959 90.74 509.299 88.53 507.629 86.34ZM507.629 86.34C507.629 86.53 506.409 87.43 504.239 88.86C505.079 89.89 505.819 90.91 506.449 91.87C506.659 92.16 506.849 92.45 507.019 92.74C507.259 93.03 507.509 93.34 507.739 93.66C508.289 94.35 508.849 95.1 509.399 95.91C510.469 94.92 511.549 93.94 512.619 92.95C510.959 90.74 509.299 88.53 507.629 86.34Z" fill="url(#paint0_linear_147_44)"/>
<defs>
<linearGradient id="paint0_linear_147_44" x1="-0.00299803" y1="184.451" x2="589.071" y2="184.451" gradientUnits="userSpaceOnUse">
<stop offset="1.85844e-07" stop-color="#BF9924"/>
<stop offset="1" stop-color="#9B6610"/>
</linearGradient>
</defs>
</svg>
